<svg id="Layer_1" data-name="Layer 1" xmlns="http://www.w3.org/2000/svg" xmlns:xlink="http://www.w3.org/1999/xlink" viewBox="0 0 1702.75 1629.99"><defs><style>.cls-1{fill:#ededed;stroke:#999;}.cls-1,.cls-2{stroke-miterlimit:10;stroke-width:4px;}.cls-2{stroke:#ff687b;fill:url(#linear-gradient);}.cls-11,.cls-3{font-size:60px;font-family:Roboto-Bold, Roboto;font-weight:700;}.cls-3{fill:#4d4d4d;}.cls-4{letter-spacing:-0.01em;}.cls-5{letter-spacing:-0.02em;}.cls-6{letter-spacing:-0.01em;}.cls-7{letter-spacing:0.02em;}.cls-8{letter-spacing:-0.01em;}.cls-9{letter-spacing:-0.01em;}.cls-10{letter-spacing:-0.02em;}.cls-11{fill:#fff;}.cls-12{letter-spacing:-0.01em;}.cls-13{letter-spacing:-0.02em;}</style><linearGradient id="linear-gradient" x1="634.45" y1="1030.66" x2="1063.3" y2="601.82" gradientUnits="userSpaceOnUse"><stop offset="0" stop-color="#f9a"/><stop offset="1" stop-color="#ff687b"/></linearGradient></defs><polygon class="cls-1" points="285.75 159.28 285.75 473.21 557.63 630.18 829.5 473.21 829.5 159.28 557.63 2.31 285.75 159.28"/><polygon class="cls-1" points="869.5 159.28 869.5 473.21 1141.38 630.18 1413.25 473.21 1413.25 159.28 1141.38 2.31 869.5 159.28"/><polygon class="cls-1" points="285.75 1156.78 285.75 1470.71 557.63 1627.68 829.5 1470.71 829.5 1156.78 557.63 999.81 285.75 1156.78"/><polygon class="cls-1" points="869.5 1156.78 869.5 1470.71 1141.38 1627.68 1413.25 1470.71 1413.25 1156.78 1141.38 999.81 869.5 1156.78"/><polygon class="cls-2" points="577 659.28 577 973.21 848.88 1130.18 1120.75 973.21 1120.75 659.28 848.88 502.31 577 659.28"/><polygon class="cls-1" points="1157 660.53 1157 974.46 1428.88 1131.43 1700.75 974.46 1700.75 660.53 1428.88 503.56 1157 660.53"/><polygon class="cls-1" points="2 660.53 2 974.46 273.88 1131.43 545.75 974.46 545.75 660.53 273.88 503.56 2 660.53"/><text class="cls-3" transform="translate(434.56 267.8)"><tspan class="cls-4">F</tspan><tspan x="32.26" y="0">ehlende </tspan><tspan class="cls-5" x="-106.17" y="72">V</tspan><tspan x="-68.23" y="72">e</tspan><tspan class="cls-6" x="-35.8" y="72">r</tspan><tspan x="-14.47" y="72">gütungen aus </tspan><tspan class="cls-5" x="-10.5" y="144">V</tspan><tspan x="27.44" y="144">e</tspan><tspan class="cls-7" x="59.87" y="144">r</tspan><tspan x="83.22" y="144">t</tspan><tspan class="cls-8" x="103.49" y="144">r</tspan><tspan x="124.5" y="144">ägen</tspan></text><text class="cls-3" transform="translate(1037.75 303.8)">Doppel-<tspan x="-33.78" y="72">zahlungen</tspan></text><text class="cls-3" transform="translate(434.56 1296.8)"><tspan class="cls-4">F</tspan><tspan x="32.26" y="0">ehlende </tspan><tspan x="-69.81" y="72">Skon</tspan><tspan class="cls-8" x="66.65" y="72">t</tspan><tspan x="86.04" y="72">oa</tspan><tspan class="cls-9" x="152.14" y="72">b</tspan><tspan x="185.48" y="72">züge</tspan></text><text class="cls-3" transform="translate(1020.56 1260.8)"><tspan class="cls-4">F</tspan><tspan x="32.26" y="0">ehlende </tspan><tspan x="-84.98" y="72">Einfuhrumsatz-</tspan><tspan x="-60.21" y="144">steue</tspan><tspan class="cls-8" x="89.36" y="144">r</tspan><tspan x="110.36" y="144">a</tspan><tspan class="cls-9" x="142.53" y="144">b</tspan><tspan x="175.87" y="144">züge</tspan></text><text class="cls-3" transform="translate(150.56 768.8)"><tspan class="cls-4">F</tspan><tspan x="32.26" y="0">ehlende </tspan><tspan class="cls-10" x="-20.98" y="72">V</tspan><tspan x="16.9" y="72">orsteuer-</tspan><tspan x="25.08" y="144">a</tspan><tspan class="cls-9" x="57.25" y="144">b</tspan><tspan x="90.59" y="144">züge</tspan></text><text class="cls-11" transform="translate(646.18 840.8)">Prüfungs<tspan class="cls-12" x="247.94" y="0">f</tspan><tspan x="268.74" y="0">elder</tspan></text><text class="cls-3" transform="translate(1330.32 804.8)"><tspan class="cls-13">F</tspan><tspan x="31.88" y="0">alsch-</tspan><tspan x="-40.36" y="72">zahlungen</tspan></text></svg>